# xmcd CD database file
#
# Track frame offsets:
#	150
#	15901
#	30998
#	48757
#	67298
#	82250
#	99841
#	116978
#	130777
#	147056
#	161459
#	175453
#	190773
#	207154
#	224919
#	241817
#	258228
#	273032
#
# Disc length: 3882 seconds
#
# Revision: 0
# Processed by: cddbd v1.5.1PL0 Copyright (c) Steve Scherf et al.
# Submitted via: CDex 1.51
#
DISCID=f90f2812
DTITLE=Various Artist - Promo Only Canada April 2005 Country Radio
DYEAR=2005
DGENRE=Country
TTITLE0=Toby Keith - Honky Tonk U
TTITLE1=Diamond Rio - One Believer
TTITLE2=Big and Rich - Big Time
TTITLE3=Bobby Pinson - Don't Ask Me How I Know
TTITLE4=Hot Apple Pie - Hillbillies
TTITLE5=Darryl Worley - If Something Should Happen
TTITLE6=Hanna and McEuen - Something Like A Broken Heart
TTITLE7=Keith Anderson - Pickin' Wildflowers
TTITLE8=LeAnn Rimes - Probably Wouldn't Be This Way
TTITLE9=Brian McComas - The Middle Of Nowhere
TTITLE10=Shelly Fairchild - Tiny Town
TTITLE11=Gretchen Wilson - Homewrecker
TTITLE12=Pat Green - Baby Doll
TTITLE13=Reba McEntire - My Sister
TTITLE14=Blue County - That Summer Song
TTITLE15=Jeffrey Steele - Just The Way We Do It
TTITLE16=David Ball - Happy With The One I've Got
TTITLE17=Kevin Fowler - Hard Man To Love
EXTD=YEAR: 2005
EXTT0=
EXTT1=
EXTT2=
EXTT3=
EXTT4=
EXTT5=
EXTT6=
EXTT7=
EXTT8=
EXTT9=
EXTT10=
EXTT11=
EXTT12=
EXTT13=
EXTT14=
EXTT15=
EXTT16=
EXTT17=
PLAYORDER=
